<svg width="88" height="83" viewBox="0 0 88 83" fill="none" xmlns="http://www.w3.org/2000/svg">
<path d="M37.3923 80.7305C26.3771 78.7883 17.3569 75.449 10.3319 70.7127C3.30687 65.9764 0.225268 61.1645 1.08708 56.2769L8.80477 12.5077C9.65372 7.69308 14.2285 4.24999 22.5292 2.17843C30.8298 0.106866 40.4148 0.0293658 51.2842 1.94593C62.1535 3.86249 71.134 7.21358 78.2255 11.9992C85.317 16.7848 88.4383 21.5849 87.5894 26.3995L79.8717 70.1688C79.0099 75.0563 74.4684 78.5241 66.2471 80.5721C58.0258 82.62 48.4076 82.6728 37.3923 80.7305ZM46.8079 27.3321C53.0815 28.4383 59.6896 28.6069 66.6324 27.8378C73.5751 27.0687 78.207 25.6478 80.5282 23.5749C78.9702 20.8933 75.0639 17.9856 68.8093 14.8519C62.5548 11.7182 56.3271 9.60465 50.1265 8.51131C43.707 7.37938 37.0838 7.18936 30.257 7.94123C23.4301 8.69311 18.7767 10.1291 16.2968 12.2492C17.8892 15.1626 21.7311 18.1153 27.8226 21.1074C33.9141 24.0995 40.2425 26.1744 46.8079 27.3321ZM42.5695 50.7293C45.6334 51.2696 48.7261 51.6457 51.8479 51.8576C54.9696 52.0696 57.9926 52.0949 60.9169 51.9336C63.8412 51.7723 66.6635 51.4426 69.384 50.9444C72.1044 50.4463 74.5888 49.7937 76.8372 48.9867L79.8278 32.0261C77.5064 32.8203 74.9856 33.4664 72.2652 33.9646C69.5447 34.4627 66.7041 34.7892 63.7434 34.9441C60.7826 35.099 57.7746 35.0951 54.7194 34.9325C51.6642 34.7698 48.6047 34.4184 45.5408 33.8782C42.477 33.3379 39.4453 32.6153 36.4458 31.7103C33.4462 30.8054 30.6001 29.777 27.9073 28.6252C25.2146 27.4735 22.6934 26.2015 20.3439 24.8094C17.9944 23.4173 15.9377 21.9641 14.1739 20.4496L11.1833 37.4102C12.9471 38.9246 14.9855 40.3747 17.2986 41.7604C19.6116 43.146 22.1145 44.4148 24.8073 45.5665C27.5 46.7183 30.3494 47.7284 33.3554 48.5969C36.3613 49.4654 39.4327 50.1762 42.5695 50.7293ZM38.55 74.1652C42.0515 74.7826 45.7171 75.1093 49.5468 75.1452C53.3766 75.1811 56.9316 74.9618 60.212 74.4872C63.4924 74.0126 66.318 73.3449 68.6886 72.4843C71.0593 71.6236 72.5792 70.5753 73.2484 69.3394L75.6602 55.6615C73.4118 56.4685 70.9307 57.1029 68.2167 57.5645C65.5027 58.0262 62.6835 58.3377 59.7592 58.499C56.835 58.6603 53.8302 58.6382 50.7449 58.4327C47.6597 58.2271 44.5486 57.8478 41.4119 57.2947C38.2751 56.7416 35.2037 56.0308 32.1977 55.1623C29.1918 54.2938 26.3424 53.2837 23.6496 52.1319C20.9569 50.9801 18.4508 49.7297 16.1313 48.3805C13.8118 47.0313 11.7702 45.5994 10.0064 44.085L7.57529 57.8723C7.72136 59.1767 8.73961 60.6537 10.63 62.3034C12.5204 63.953 14.9472 65.5468 17.9104 67.0847C20.8735 68.6226 24.1606 70.0296 27.7717 71.3056C31.3827 72.5817 34.9755 73.5349 38.55 74.1652Z" fill="#262525"/>
</svg>
