<svg width="80" height="75" viewBox="0 0 80 75" fill="none" xmlns="http://www.w3.org/2000/svg">
<path d="M67.5497 29.6517C66.7672 29.2291 65.982 28.8213 65.1943 28.4283C65.4322 27.8843 65.6571 27.338 65.8801 26.7914C69.3864 17.973 69.4367 10.397 65.6659 7.22164C62.0273 4.18836 55.0012 5.43692 47.3008 10.0632C46.5381 10.5147 45.7925 10.9998 45.0652 11.4901C44.7206 11.0176 44.3593 10.5422 43.9972 10.082C38.0901 2.64461 31.5329 -1.20395 26.9022 0.497617C22.4581 2.13061 20.0274 8.84267 20.2013 17.8025C20.219 18.6922 20.2543 19.5697 20.3185 20.4676C19.2853 20.5708 18.2617 20.7063 17.2966 20.8693C8.57952 22.262 1.89542 25.706 1.07774 30.3433C0.232874 35.1348 5.66419 41.0482 13.6896 45.4716C14.3412 45.824 14.9929 46.1763 15.6666 46.5019C15.2721 47.3898 14.9126 48.2532 14.5633 49.1568C11.4453 57.3944 11.5157 64.3733 15.1374 67.4036C18.8686 70.5317 26.2878 69.3065 34.1374 64.5629C34.7591 64.1823 35.3855 63.7853 36.0147 63.362C36.5755 64.1426 37.1717 64.8969 37.7726 65.6348C43.362 72.4474 49.4662 75.8828 53.893 74.2717C58.4691 72.6084 61.1042 65.5858 60.9113 56.4292C60.8915 55.7286 60.8595 55.0107 60.8152 54.2752C61.3326 54.2247 61.8362 54.1546 62.3397 54.0844C71.7353 52.7175 79.0034 49.1065 79.8617 44.2389C80.682 39.5867 75.4152 34.0029 67.5513 29.6539L67.5497 29.6517ZM49.0302 12.9437C55.6318 8.97769 61.3146 7.96908 63.4988 9.79421C65.8421 11.7393 65.7757 17.9376 62.7497 25.5558C62.5497 26.0586 62.3524 26.5466 62.1253 27.0293C58.8492 25.6565 55.4854 24.503 52.056 23.5764C50.562 20.3624 48.8525 17.2525 46.9394 14.2678C47.6388 13.8051 48.3213 13.3625 49.0287 12.9415L49.0302 12.9437ZM25.3997 42.8507C25.9496 44.3245 26.514 45.8027 27.1287 47.2573C24.776 46.5742 22.4604 45.7696 20.1913 44.8468C21.3199 42.6553 22.5592 40.5225 23.9046 38.4566C24.3733 39.9333 24.8618 41.3963 25.3975 42.8522L25.3997 42.8507ZM23.9954 23.5556C26.2985 23.4542 28.723 23.47 31.2223 23.5948C30.1826 24.725 29.1522 25.8895 28.1657 27.0771C27.1792 28.2646 26.2113 29.4554 25.2769 30.6847C24.7108 28.2258 24.2909 25.8404 23.9954 23.5556ZM26.3457 34.8849C27.7354 32.9451 29.2081 31.0677 30.737 29.2309C32.2659 27.3941 33.8767 25.6368 35.5455 23.9205C37.8829 24.1583 40.2533 24.4806 42.6632 24.9055C45.0731 25.3304 47.4164 25.8394 49.6886 26.4143C50.655 28.58 51.5519 30.7807 52.3794 33.0164C53.2068 35.2521 53.955 37.5159 54.6241 39.808C53.2194 41.7458 51.7433 43.6392 50.1956 45.488C48.6667 47.3248 47.0671 49.084 45.4177 50.821C43.0952 50.5858 40.696 50.2413 38.2806 49.8153C35.8651 49.3894 33.5393 48.9008 31.3028 48.3628C30.308 46.1768 29.3983 43.9579 28.5737 41.7061C27.7485 39.4542 27.0216 37.189 26.3643 34.8882L26.3457 34.8849ZM52.7489 47.6463C53.7726 46.4327 54.7524 45.1961 55.7181 43.9417C56.3103 46.337 56.7796 48.7609 57.1239 51.2039C54.6423 51.3226 52.1559 51.3067 49.6758 51.1563C50.7285 50.0073 51.7373 48.8237 52.748 47.6404L52.7489 47.6463ZM57.0365 36.2906C56.551 34.8109 56.0503 33.3305 55.5127 31.8742C54.9751 30.4179 54.4321 29.0028 53.841 27.5888C56.1664 28.2975 58.4544 29.1233 60.6961 30.0633C59.5885 32.2017 58.3694 34.2808 57.0439 36.2919L57.0365 36.2906ZM44.2175 16.2217C45.5227 18.2572 46.7192 20.3602 47.8019 22.5218C44.7797 21.8472 41.7166 21.3071 38.6461 20.9074C40.5045 19.1823 42.3832 17.614 44.2172 16.212L44.2175 16.2217ZM28.0271 3.65066C30.8771 2.60214 36.2374 5.76283 41.343 12.1742C41.6686 12.5801 41.9871 13.0154 42.3221 13.4555C39.4911 15.6033 36.8081 17.9387 34.2912 20.4459C30.7592 20.1425 27.2115 20.067 23.6702 20.2199C23.6093 19.4011 23.577 18.572 23.5522 17.7442C23.4161 10.0606 25.3579 4.62001 28.0364 3.6523L28.0271 3.65066ZM17.118 43.4719C16.505 43.1723 15.9092 42.8624 15.316 42.5375C12.012 40.8979 9.01796 38.6984 6.46725 36.0368C5.79261 35.3712 5.26022 34.5759 4.90229 33.6991C4.54436 32.8224 4.36832 31.8824 4.38485 30.936C4.88031 28.1261 10.3766 25.39 17.8229 24.1849C18.7535 24.033 19.6955 23.9138 20.6331 23.8091C21.0916 27.3263 21.7757 30.8106 22.6812 34.2407C20.6335 37.1974 18.7754 40.2807 17.118 43.4719ZM32.4068 61.6784C29.4612 63.5521 26.1962 64.8708 22.7734 65.5694C21.859 65.8242 20.9017 65.8883 19.9611 65.7577C19.0205 65.6271 18.1168 65.3046 17.3063 64.8103C15.1084 62.9655 15.0497 57.3674 17.7205 50.3167C18.0415 49.4867 18.3773 48.6593 18.7422 47.8523C22.0557 49.199 25.4577 50.3171 28.9243 51.1988C30.4519 54.4317 32.1887 57.562 34.1239 60.5699C33.5506 60.959 32.9763 61.3326 32.409 61.6769L32.4068 61.6784ZM36.835 58.6122C35.5642 56.6455 34.3237 54.4966 33.1557 52.2187C34.6225 52.5405 36.1392 52.8405 37.6782 53.1119C39.2637 53.3915 40.8231 53.6339 42.3756 53.8291C40.6176 55.524 38.7684 57.1221 36.8362 58.6162L36.835 58.6122ZM56.1343 66.7622C55.8992 67.6816 55.4773 68.5429 54.8949 69.2926C54.3125 70.0424 53.582 70.6647 52.7485 71.121C50.0522 72.1028 45.1612 69.3388 40.3801 63.5247C39.8326 62.8537 39.2897 62.1452 38.7375 61.414C41.5459 59.2374 44.2003 56.8697 46.6816 54.328C50.2639 54.661 53.865 54.7431 57.4584 54.5737C57.5018 55.2305 57.5285 55.8844 57.543 56.5208C57.7051 59.9948 57.2272 63.4686 56.133 66.7696L56.1343 66.7622ZM61.8366 50.7461C61.3806 50.8074 60.9262 50.8709 60.4635 50.9157C59.9697 47.3744 59.2362 43.8703 58.2681 40.4275C60.2912 37.5552 62.1196 34.551 63.7411 31.4351C64.5007 31.8065 65.2261 32.1871 65.9213 32.5644C72.6583 36.2857 77.0458 40.8279 76.5516 43.6303C76.0208 46.6408 69.9651 49.579 61.8402 50.7583L61.8366 50.7461ZM39.208 44.3816C40.6018 44.6274 42.0371 44.4552 43.3323 43.8867C44.6275 43.3183 45.7244 42.3791 46.4844 41.188C47.2444 39.997 47.6333 38.6075 47.602 37.1952C47.5706 35.783 47.1204 34.4115 46.3082 33.2541C45.4961 32.0967 44.3584 31.2055 43.0392 30.6931C41.72 30.1807 40.2785 30.0701 38.8969 30.3753C37.5153 30.6806 36.2557 31.3879 35.2774 32.408C34.2991 33.428 33.646 34.7149 33.4007 36.1059C33.2375 37.0303 33.2585 37.9779 33.4625 38.8945C33.6666 39.811 34.0498 40.6785 34.59 41.4473C35.1303 42.2161 35.8171 42.8712 36.6111 43.375C37.4051 43.8788 38.2907 44.2214 39.2173 44.3833L39.208 44.3816Z" fill="#00D3FF"/>
</svg>
