<svg width="85" height="92" viewBox="0 0 85 92" fill="none" xmlns="http://www.w3.org/2000/svg">
<path fill-rule="evenodd" clip-rule="evenodd" d="M48.0525 11.2776L74.7306 33.6632L68.6832 67.9599L35.9577 79.871L9.27961 57.4854L15.327 23.1888L48.0525 11.2776ZM18.3204 25.7005L13.8784 50.8923L42.3582 16.9514L18.3204 25.7005ZM47.1257 16.5343L14.2955 55.6598L64.5942 64.5288L47.1257 16.5343ZM60.674 67.2738L17.0404 59.58L36.6362 76.0228L60.674 67.2738ZM66.6168 60.1915L51.463 18.5569L71.0588 34.9997L66.6168 60.1915Z" fill="#E10098"/>
<path d="M15.5827 31.4592C19.4596 32.1428 23.1566 29.5541 23.8402 25.6772C24.5238 21.8004 21.9351 18.1034 18.0582 17.4198C14.1814 16.7362 10.4844 19.3248 9.80076 23.2017C9.11717 27.0786 11.7058 30.7756 15.5827 31.4592Z" fill="#E10098"/>
<path d="M9.8738 63.836C13.7507 64.5196 17.4477 61.931 18.1313 58.0541C18.8149 54.1772 16.2262 50.4802 12.3493 49.7966C8.47245 49.113 4.77545 51.7017 4.09186 55.5785C3.40826 59.4554 5.99692 63.1524 9.8738 63.836Z" fill="#E10098"/>
<path d="M35.0592 84.9668C38.936 85.6504 42.633 83.0617 43.3166 79.1848C44.0002 75.3079 41.4116 71.6109 37.5347 70.9273C33.6578 70.2437 29.9608 72.8324 29.2772 76.7093C28.5936 80.5862 31.1823 84.2832 35.0592 84.9668Z" fill="#E10098"/>
<path d="M65.9486 73.7236C69.8255 74.4072 73.5225 71.8185 74.2061 67.9416C74.8897 64.0648 72.301 60.3678 68.4242 59.6842C64.5473 59.0006 60.8503 61.5892 60.1667 65.4661C59.4831 69.343 62.0718 73.04 65.9486 73.7236Z" fill="#E10098"/>
<path d="M71.6568 41.3512C75.5337 42.0348 79.2307 39.4461 79.9143 35.5692C80.5979 31.6923 78.0092 27.9953 74.1323 27.3117C70.2554 26.6281 66.5584 29.2168 65.8748 33.0937C65.1912 36.9706 67.7799 40.6676 71.6568 41.3512Z" fill="#E10098"/>
<path d="M46.4755 20.2213C50.3524 20.9049 54.0494 18.3162 54.733 14.4393C55.4166 10.5625 52.8279 6.86545 48.9511 6.18186C45.0742 5.49826 41.3772 8.08692 40.6936 11.9638C40.01 15.8407 42.5987 19.5377 46.4755 20.2213Z" fill="#E10098"/>
</svg>
