<svg width="81" height="81" viewBox="0 0 81 81" fill="none" xmlns="http://www.w3.org/2000/svg">
<path d="M53.3328 78.1737C53.0148 78.2756 53.0186 78.3439 53.3357 78.2464C53.4276 78.2251 53.5146 78.1869 53.5924 78.1337C53.6017 78.0812 53.6006 78.0877 53.3302 78.1755L53.3328 78.1737ZM53.9713 77.968C53.8145 78.051 53.813 78.0597 53.9965 78.0041C54.0657 77.9899 54.131 77.9606 54.1876 77.9182C54.1988 77.8547 54.1563 77.8653 53.9713 77.968ZM54.3972 77.8039C54.2405 77.8869 54.2389 77.8956 54.4224 77.84C54.4916 77.8258 54.5569 77.7964 54.6135 77.7541C54.6225 77.6902 54.5826 77.699 54.3972 77.8039ZM54.8208 77.653C54.664 77.7359 54.6625 77.7447 54.846 77.689C54.9152 77.6748 54.9805 77.6455 55.0371 77.6031C55.048 77.5283 55.0059 77.5367 54.8231 77.6398L54.8208 77.653ZM55.4133 77.4009C55.1141 77.5242 55.0084 77.6251 55.2725 77.534C55.4605 77.4656 55.7645 77.3026 55.7284 77.2895C55.6199 77.3145 55.514 77.3533 55.4133 77.4009ZM44.7029 0.503372C44.5292 0.490795 43.9818 0.448435 43.4896 0.400012C37.7859 -0.0463083 32.0526 0.734622 26.6753 2.69027C21.298 4.64592 16.4015 7.73093 12.3152 11.7378C7.75002 16.185 4.32552 21.6691 2.33284 27.724C1.69768 29.5651 1.23926 31.4625 0.963769 33.3905C0.560863 35.2989 0.340707 37.2414 0.306289 39.1915C0.100422 46.6725 1.98769 54.062 5.75528 60.5266C9.52288 66.9912 15.0209 72.2739 21.6295 75.7789C24.1835 77.1121 26.867 78.1804 29.6384 78.9671C32.1277 79.5414 34.6453 79.9853 37.1809 80.2971C42.2137 80.6829 47.2743 80.1208 52.1002 78.6401C52.8375 78.4113 52.9846 78.3447 52.9066 78.2497C51.2499 75.0239 49.6134 71.7867 47.9968 68.5379L43.1994 58.9181L37.3815 45.8372C35.4457 41.4655 33.4842 37.1073 31.4971 32.7626C31.4664 32.7572 30.5198 37.934 29.3895 44.2677C27.411 55.3601 27.3235 55.8051 27.1372 56.043C26.9493 56.3267 26.6655 56.533 26.3378 56.6242C26.0686 56.7054 25.8482 56.6891 24.6866 56.4842L23.3544 56.2493L23.0386 55.968C22.8438 55.7913 22.6998 55.5657 22.6215 55.3145L22.5232 54.9383L25.2611 39.5004L28.0064 24.0592L28.2977 23.8014C28.492 23.6403 28.7134 23.515 28.9516 23.4316C29.294 23.3317 29.4192 23.338 30.7536 23.5733C32.3264 23.8506 32.5737 23.9574 32.9037 24.4782C35.259 29.7965 37.5843 35.1275 39.8794 40.4713C43.6244 49.1269 48.7425 60.9448 51.26 66.7505L55.8284 77.2981L56.1801 77.1457C59.534 75.6787 62.6771 73.7702 65.5262 71.4708C71.4885 66.6656 75.9387 60.2416 78.3429 52.9695C78.9786 51.1247 79.437 49.2235 79.7117 47.2917C80.1146 45.3833 80.3347 43.4408 80.3692 41.4906C80.5731 34.0118 78.6851 26.625 74.9181 20.1627C71.1511 13.7004 65.6547 8.41942 59.0484 4.91491C56.5314 3.59486 53.8866 2.53493 51.1547 1.75157C50.4306 1.54717 45.3553 0.564247 44.7079 0.513284L44.7029 0.503372ZM56.6176 27.1815C56.7845 27.3061 56.9249 27.4627 57.0308 27.6421C57.1366 27.8216 57.2057 28.0203 57.234 28.2267C57.2619 28.4392 56.5206 32.7203 54.806 42.3675L52.3425 56.211L50.5611 52.038L48.7732 47.8639L50.5484 37.7963C51.6957 31.2896 52.3712 27.6378 52.4484 27.4686C52.5401 27.2738 52.6699 27.0994 52.83 26.9555C52.9902 26.8117 53.1775 26.7014 53.381 26.6311C53.7241 26.5269 53.8497 26.531 55.0529 26.7431C56.1893 26.9367 56.3875 26.9897 56.6176 27.1815Z" fill="black"/>
</svg>
