<svg width="93" height="93" viewBox="0 0 93 93" fill="none" xmlns="http://www.w3.org/2000/svg">
<path d="M92.6765 13.8919L13.8918 0L-8.58307e-06 78.7846L78.7846 92.6765L92.6765 13.8919Z" fill="#E7EF00"/>
<path d="M52.1884 45.8865L43.6653 44.3837L39.6739 67.0199C38.6864 72.6208 36.4898 73.8434 33.1468 73.2539C31.7609 73.0173 30.4229 72.5562 29.1855 71.8889L27.122 78.3561C28.918 79.2636 30.8378 79.9019 32.8196 80.2506C40.4957 81.6042 46.3478 78.9159 48.172 68.57L52.1723 45.8837L52.1884 45.8865Z" fill="black"/>
<path d="M70.9246 48.3114C62.6737 46.8565 56.6259 50.6236 55.5335 56.8189C54.5926 62.1548 58.0254 66.2033 63.4933 69.3903C67.4567 71.6437 68.8985 73.2881 68.5092 75.4959C68.0817 77.9203 65.8741 79.1428 62.2196 78.4984C59.2262 77.9224 56.4182 76.6256 54.0386 74.7204L51.24 81.1687C53.9823 83.2187 57.1755 84.5825 60.5526 85.1463C70.2216 86.8512 75.6101 82.4676 76.6836 76.3797C77.5954 71.2085 75.3196 67.3622 69.5173 63.8947C65.2517 61.2501 63.4996 59.8889 63.9082 57.5719C64.2311 55.7401 66.1963 54.3641 69.6431 54.9719C72.1208 55.4181 74.4459 56.4821 76.4032 58.0655L79.6437 51.6027C77.0019 49.9033 74.0305 48.7817 70.9246 48.3114Z" fill="black"/>
</svg>
