<svg width="67" height="89" viewBox="0 0 67 89" fill="none" xmlns="http://www.w3.org/2000/svg">
<path d="M33.2075 44.0231C33.8215 40.5406 35.7938 37.4447 38.6905 35.4164C41.5872 33.3881 45.171 32.5936 48.6535 33.2076C52.136 33.8217 55.232 35.794 57.2603 38.6907C59.2885 41.5874 60.0831 45.1712 59.469 48.6537C58.8549 52.1362 56.8826 55.2321 53.9859 57.2604C51.0892 59.2887 47.5054 60.0832 44.0229 59.4692C40.5404 58.8551 37.4445 56.8828 35.4162 53.9861C33.3879 51.0894 32.5934 47.5056 33.2075 44.0231V44.0231Z" fill="#1ABCFE"/>
<path d="M2.31531 65.654C2.92936 62.1715 4.90169 59.0755 7.79839 57.0472C10.6951 55.019 14.2789 54.2244 17.7614 54.8385L30.8922 57.1538L28.5768 70.2846C27.9628 73.7671 25.9905 76.863 23.0938 78.8913C20.1971 80.9196 16.6133 81.7141 13.1308 81.1C9.64827 80.486 6.55234 78.5137 4.52405 75.617C2.49576 72.7203 1.70125 69.1365 2.31531 65.654H2.31531Z" fill="#0ACF83"/>
<path d="M40.1534 4.63086L35.5228 30.8924L48.6536 33.2077C52.1361 33.8218 55.7199 33.0273 58.6166 30.999C61.5133 28.9707 63.4856 25.8747 64.0997 22.3922C64.7137 18.9097 63.9192 15.326 61.8909 12.4293C59.8626 9.53255 56.7667 7.56023 53.2842 6.94617L40.1534 4.63086Z" fill="#FF7262"/>
<path d="M11.5765 13.1308C10.9625 16.6133 11.757 20.1971 13.7853 23.0938C15.8136 25.9905 18.9095 27.9628 22.392 28.5768L35.5228 30.8922L40.1534 4.63062L27.0226 2.31531C23.5401 1.70125 19.9563 2.49576 17.0596 4.52405C14.1629 6.55234 12.1906 9.64827 11.5765 13.1308V13.1308Z" fill="#F24E1E"/>
<path d="M6.94592 39.3924C6.33186 42.8749 7.12637 46.4587 9.15466 49.3554C11.183 52.2521 14.2789 54.2244 17.7614 54.8384L30.8922 57.1538L35.5228 30.8922L22.392 28.5769C18.9095 27.9628 15.3257 28.7574 12.429 30.7856C9.5323 32.8139 7.55998 35.9099 6.94592 39.3924H6.94592Z" fill="#A259FF"/>
</svg>
