<svg width="90" height="73" viewBox="0 0 90 73" fill="none" xmlns="http://www.w3.org/2000/svg">
<path d="M10.3417 0L6.46601 44.2746L22.5613 53.0417L40.7935 50.3275L52.2944 7.39738L10.3417 0ZM41.5249 20.0256L21.4482 16.4855L20.937 22.0071L40.1208 25.3897L35.753 41.4766L24.5336 42.5644L24.5277 42.5977L24.4079 42.5766L14.1592 37.669L14.9757 29.2024L20.1868 30.1213L19.8287 34.3854L25.3914 37.0147L31.5405 36.4505L33.4047 29.7141L15.1657 26.4981L16.5954 10.2119L42.9359 14.8564L41.5249 20.0256Z" fill="#FF6000"/>
<path d="M45.5342 15.7928L41.6585 60.0675L57.811 68.8446L75.9913 66.1213L87.4868 23.1902L45.5342 15.7928ZM78.1866 30.6376L76.7435 35.7558L63.1893 38.9651L63.1541 38.9699L75.3357 41.1178L71.0907 57.0216L59.8049 58.2915L49.5771 53.1719L50.3138 44.9083L55.6567 45.8504L55.2582 50.1335L60.7459 52.6122L67.0213 51.97L68.6169 45.255L50.467 41.9928L50.4691 41.9808L50.446 41.9877L50.946 36.8173L64.1049 33.8349L64.8679 33.6631L51.4448 31.2963L51.7264 25.9719L78.1866 30.6376Z" fill="#0077D2"/>
</svg>
