<svg width="48" height="39" viewBox="0 0 48 39" fill="none" xmlns="http://www.w3.org/2000/svg">
<path d="M43.2 0H4.8C3.53112 0.00644359 2.31638 0.522902 1.42139 1.43644C0.526401 2.34999 0.0239843 3.58628 0.0240002 4.875L0 34.125C0.00379854 35.4167 0.510731 36.6545 1.41008 37.5679C2.30944 38.4813 3.52813 38.9961 4.8 39H43.2C44.4719 38.9961 45.6906 38.4813 46.5899 37.5679C47.4893 36.6545 47.9962 35.4167 48 34.125V4.875C47.9962 3.58326 47.4893 2.34552 46.5899 1.43212C45.6906 0.518711 44.4719 0.0038579 43.2 0ZM43.2 9.75L24 21.9375L4.8 9.75V4.875L24 17.0625L43.2 4.875V9.75Z" fill="#F8FAFD"/>
</svg>
