<svg width="48" height="48" viewBox="0 0 48 48" fill="none" xmlns="http://www.w3.org/2000/svg">
<path d="M16.0551 38.6506C16.0551 38.8497 15.8322 39.0078 15.5515 39.0078C15.2322 39.0374 15.0093 38.8793 15.0093 38.6506C15.0093 38.4516 15.2322 38.2935 15.5129 38.2935C15.8033 38.2639 16.0551 38.422 16.0551 38.6506ZM13.0457 38.2046C12.9783 38.4036 13.1709 38.6281 13.4585 38.6916C13.5642 38.7446 13.6858 38.7534 13.7977 38.7163C13.9096 38.6792 14.0031 38.599 14.0585 38.4926C14.1163 38.2935 13.9333 38.0691 13.6457 37.976C13.5354 37.9354 13.4148 37.9361 13.305 37.978C13.1952 38.0198 13.1034 38.1001 13.0457 38.2046ZM17.3224 38.0352C17.0472 38.1044 16.8477 38.2935 16.878 38.5222C16.9069 38.7212 17.1532 38.8497 17.449 38.7805C17.7449 38.7113 17.9237 38.5222 17.8935 38.3246C17.8632 38.127 17.6031 38.0056 17.3224 38.0352ZM23.688 0.00526633C20.5662 -0.0621098 17.4633 0.517614 14.5652 1.7097C11.6671 2.90179 9.03335 4.68172 6.82185 6.94283C4.61035 9.20394 2.86658 11.8997 1.695 14.8686C0.523424 17.8375 -0.051843 21.0185 0.00366667 24.2209C-0.0368227 29.4425 1.52518 34.5448 4.46846 38.8052C7.41173 43.0656 11.5871 46.2682 16.4032 47.9595C17.6417 48.1881 18.0765 47.4033 18.0765 46.7583C18.0765 46.1429 18.0476 42.7482 18.0476 40.6649C18.0476 40.6649 11.2748 42.154 9.85331 37.7007C9.85331 37.7007 8.75249 34.8128 7.16317 34.0689C7.16317 34.0689 4.94775 32.5163 7.31866 32.5403C8.09087 32.6476 8.8289 32.9347 9.47621 33.3798C10.1235 33.8248 10.663 34.4159 11.0532 35.1078C11.3762 35.7265 11.8169 36.2725 12.3492 36.7134C12.8815 37.1543 13.4947 37.4812 14.1524 37.6747C14.8101 37.8681 15.499 37.9243 16.1782 37.8398C16.8574 37.7553 17.5132 37.5318 18.1068 37.1827C18.2316 35.9179 18.7784 34.7362 19.6548 33.8374C14.247 33.222 8.78414 32.4189 8.78414 22.8701C8.73032 21.7845 8.90653 20.6998 9.30062 19.6908C9.69472 18.6817 10.2973 17.7723 11.067 17.0251C10.3334 14.8246 10.4231 12.423 11.3188 10.2866C13.3416 9.64156 17.9953 12.9685 17.9953 12.9685C21.9717 11.8438 26.1707 11.8438 30.1471 12.9685C30.1471 12.9685 34.8008 9.63309 36.8236 10.2866C37.7196 12.4229 37.8094 14.8247 37.0754 17.0251C37.8738 17.7604 38.5096 18.6623 38.9402 19.6705C39.3707 20.6786 39.586 21.7696 39.5715 22.8701C39.5715 32.4471 33.8734 33.2121 28.4642 33.8374C29.0471 34.4374 29.4966 35.1597 29.7816 35.9548C30.0666 36.7498 30.1805 37.5987 30.1154 38.4432C30.1154 41.7884 30.0865 45.9241 30.0865 46.7399C30.0865 47.385 30.531 48.1698 31.7598 47.9411C36.5602 46.2531 40.7167 43.0497 43.6334 38.79C46.5502 34.5303 48.0777 29.4328 47.997 24.228C47.9928 10.4546 37.1084 0.00526633 23.688 0.00526633ZM9.40748 34.2341C9.28226 34.3329 9.31116 34.5615 9.4749 34.7507C9.6304 34.9088 9.85194 34.9793 9.97853 34.8495C10.1038 34.7507 10.0749 34.522 9.91111 34.3329C9.75562 34.1748 9.53407 34.1056 9.40748 34.2341ZM8.36307 33.4295C8.29564 33.558 8.39197 33.7118 8.58599 33.8163C8.61711 33.8407 8.65276 33.8583 8.69075 33.868C8.72874 33.8778 8.76828 33.8795 8.80693 33.873C8.84558 33.8665 8.88254 33.852 8.91553 33.8304C8.94852 33.8087 8.97686 33.7804 8.9988 33.7471C9.06622 33.6187 8.9699 33.4648 8.77588 33.3604C8.58599 33.3011 8.4305 33.3293 8.36307 33.4295ZM11.4977 36.9583C11.3422 37.0867 11.4014 37.3817 11.6229 37.5737C11.8458 37.8023 12.1265 37.832 12.2517 37.6725C12.377 37.544 12.3192 37.249 12.1265 37.0571C11.9132 36.834 11.6243 36.8044 11.4977 36.9639V36.9583ZM10.3968 35.4988C10.2414 35.5976 10.2414 35.8559 10.3968 36.0845C10.5523 36.3132 10.8097 36.412 10.939 36.3132C11.0145 36.2295 11.0565 36.1196 11.0565 36.0055C11.0565 35.8914 11.0145 35.7815 10.939 35.6978C10.8014 35.4748 10.5496 35.376 10.3955 35.5044L10.3968 35.4988Z" fill="#F8FAFD"/>
</svg>
