<svg width="48" height="48" viewBox="0 0 48 48" fill="none" xmlns="http://www.w3.org/2000/svg">
<path d="M44.5714 0H3.41794C2.50617 0.00684771 1.63433 0.375 0.99361 1.02372C0.352885 1.67245 -0.00442233 2.54879 4.13239e-05 3.46057V44.5394C-0.00442233 45.4512 0.352885 46.3276 0.99361 46.9763C1.63433 47.625 2.50617 47.9932 3.41794 48H44.5714C45.4843 47.9936 46.3575 47.6259 47 46.9774C47.6425 46.3289 48.002 45.4523 48 44.5394V3.46057C48.002 2.54768 47.6425 1.67113 47 1.02263C46.3575 0.374124 45.4843 0.00644357 44.5714 0ZM14.5067 41.1429H7.39356V18.2354H14.5174V41.1429H14.5067ZM10.9501 15.107C10.1343 15.107 9.33677 14.8651 8.65843 14.4119C7.98008 13.9586 7.45138 13.3144 7.13917 12.5606C6.82696 11.8069 6.74528 10.9775 6.90444 10.1774C7.0636 9.37719 7.45646 8.6422 8.03335 8.06531C8.61023 7.48843 9.34523 7.09557 10.1454 6.9364C10.9455 6.77724 11.7749 6.85893 12.5287 7.17114C13.2824 7.48334 13.9266 8.01205 14.3799 8.6904C14.8331 9.36874 15.0751 10.1663 15.0751 10.9821C15.0747 12.076 14.6399 13.1249 13.8665 13.8984C13.093 14.6719 12.044 15.1066 10.9501 15.107ZM41.1749 41.1429H34.0602V30.0008C34.0602 27.3432 34.0069 23.9253 30.3634 23.9253C26.656 23.9253 26.0892 26.8206 26.0892 29.8072V41.1429H18.9745V18.2354H25.7996V21.3638H25.8956C26.5804 20.1963 27.5686 19.2361 28.7553 18.5852C29.942 17.9343 31.2829 17.617 32.6354 17.667C39.8354 17.667 41.1688 22.4137 41.1688 28.5851L41.1749 41.1429Z" fill="#F8FAFD"/>
</svg>
