<svg width="48" height="48" viewBox="0 0 48 48" fill="none" xmlns="http://www.w3.org/2000/svg">
<path d="M40.8107 6.96316C36.7295 2.88455 31.3059 0.428071 25.5492 0.0509149C19.7925 -0.326241 14.0949 1.40162 9.51679 4.91291C4.93866 8.42421 1.79188 13.4797 0.662109 19.1386C-0.467665 24.7975 0.496527 30.6742 3.37524 35.6751L0 48L12.611 44.6879C16.098 46.5902 20.0068 47.586 23.9787 47.5839H23.9893C30.3186 47.583 36.3917 45.0828 40.888 40.6269C45.3842 36.1711 47.9402 30.1199 48 23.7891C47.966 20.6495 47.3136 17.5474 46.08 14.6602C44.8463 11.7731 43.0558 9.1575 40.8107 6.96316ZM23.9893 43.5736C20.4461 43.5765 16.9674 42.6251 13.9185 40.8194L13.2008 40.391L5.72191 42.3527L7.71505 35.0547L7.24419 34.3048C5.66211 31.6995 4.70229 28.7642 4.43938 25.7273C4.17648 22.6904 4.61759 19.6337 5.72839 16.7952C6.8392 13.9566 8.58974 11.4127 10.8438 9.36129C13.0979 7.30989 15.7948 5.80635 18.7246 4.96764C21.6544 4.12893 24.7382 3.97767 27.736 4.52562C30.7338 5.07357 33.5648 6.30597 36.0087 8.12692C38.4526 9.94787 40.4436 12.3083 41.8267 15.0245C43.2099 17.7407 43.9478 20.7395 43.9832 23.7876C43.9274 29.0544 41.7965 34.0866 38.0531 37.791C34.3098 41.4953 29.2565 43.5728 23.9909 43.5721L23.9893 43.5736ZM34.8328 28.7627C34.243 28.4579 31.3189 27.0266 30.7718 26.833C30.2248 26.6394 29.8286 26.5282 29.4324 27.1379C29.0362 27.7476 27.901 29.0675 27.5474 29.4745C27.1939 29.8815 26.851 29.9318 26.2613 29.6269C22.8377 28.2597 19.9836 25.764 18.1714 22.553C17.5619 21.5028 18.781 21.5775 19.9177 19.3064C19.9951 19.1421 20.0308 18.9613 20.0215 18.7799C20.0122 18.5986 19.9582 18.4223 19.8644 18.2669C19.712 17.962 18.525 15.0416 18.0358 13.8466C17.5543 12.6897 17.0606 12.8497 16.6964 12.8284C16.3322 12.8071 15.9573 12.8071 15.5611 12.8071C15.2603 12.8153 14.9643 12.8851 14.6914 13.0123C14.4186 13.1394 14.1747 13.3212 13.9749 13.5463C13.3018 14.1829 12.7685 14.9526 12.4089 15.8065C12.0492 16.6603 11.8711 17.5797 11.8857 18.5062C12.0818 20.7477 12.9228 22.8844 14.307 24.6579C14.6118 25.0542 18.496 31.0597 24.4648 33.6387C28.2362 35.2681 29.7143 35.4068 31.6008 35.1279C32.4282 34.9597 33.2117 34.6214 33.9016 34.1344C34.5915 33.6474 35.1727 33.0224 35.6084 32.2989C35.9962 31.4096 36.1153 30.4262 35.9512 29.4699C35.8171 29.2017 35.421 29.0523 34.8328 28.7627Z" fill="#F8FAFD"/>
</svg>
