<svg width="532" height="463" viewBox="0 0 532 463" fill="none" xmlns="http://www.w3.org/2000/svg">
<g clip-path="url(#clip0_114_205)">
<path d="M479.28 240.953C479.349 298.244 457.204 353.331 417.501 394.634C415.107 397.14 412.649 399.586 410.126 401.971C406.283 405.627 402.31 409.142 398.208 412.515C359.836 444.129 311.932 461.894 262.226 462.944C260.57 462.981 258.907 463 257.238 463C217.596 463 167.736 441.826 122.488 412.515C118.744 410.09 115.034 407.609 111.357 405.071C109.638 403.896 107.928 402.705 106.226 401.496C88.7741 389.173 72.2091 375.641 56.6527 360.998C46.4674 351.439 36.9163 341.226 28.0601 330.424C-6.70723 287.538 -14.3757 248.896 35.1911 240.953C41.0596 240.015 46.7552 239.013 52.2779 237.947C60.2776 236.409 67.9336 234.749 75.2457 232.965C85.0953 230.572 94.3492 227.976 103.007 225.178C105.92 224.241 108.765 223.285 111.544 222.31C152.63 207.879 180.129 189.061 198.847 168.643C202.022 165.187 204.949 161.689 207.628 158.15C211.727 152.762 215.45 147.099 218.771 141.2C223.355 133.004 227.205 124.419 230.277 115.545L230.446 115.058C245.339 72.0969 240.808 32.2484 257.238 18.9115C327.473 -38.105 414.913 43.0918 455.956 138.844C458.024 143.669 459.97 148.523 461.793 153.406C462.612 155.587 463.401 157.773 464.161 159.962C466.161 165.668 467.976 171.389 469.605 177.124C470.23 179.311 470.826 181.497 471.392 183.68C471.999 186.036 472.58 188.386 473.117 190.736C477.111 207.941 479.28 224.91 479.28 240.953Z" fill="#C1C4C5"/>
<path d="M262.226 462.944C260.57 462.981 258.907 463 257.238 463C217.596 463 167.736 441.826 122.488 412.515C118.744 410.09 115.034 407.608 111.357 405.071L114.582 385.447L212.209 372.485L261.207 409.952L262.226 462.944Z" fill="#464A50"/>
<path d="M266.926 112.527H253.014C252.583 112.527 252.17 112.698 251.865 113.003C251.56 113.307 251.389 113.721 251.389 114.151V128.07C251.389 128.283 251.431 128.494 251.513 128.69C251.595 128.887 251.715 129.066 251.866 129.216C252.016 129.366 252.196 129.485 252.393 129.566C252.59 129.647 252.801 129.689 253.014 129.688H266.926C267.355 129.688 267.768 129.518 268.073 129.215C268.377 128.911 268.549 128.5 268.551 128.07V114.151C268.549 113.721 268.378 113.308 268.073 113.004C267.769 112.699 267.356 112.528 266.926 112.527Z" fill="white"/>
<path d="M266.926 136.244H253.014C252.583 136.245 252.17 136.416 251.865 136.72C251.56 137.025 251.389 137.438 251.389 137.869V151.787C251.389 152 251.431 152.211 251.513 152.408C251.595 152.605 251.715 152.783 251.866 152.934C252.016 153.084 252.196 153.203 252.393 153.284C252.59 153.365 252.801 153.407 253.014 153.406H266.926C267.355 153.406 267.768 153.236 268.073 152.933C268.377 152.629 268.549 152.217 268.551 151.787V137.869C268.549 137.439 268.378 137.026 268.073 136.722C267.769 136.417 267.356 136.246 266.926 136.244Z" fill="#E6E6E6"/>
<path d="M266.926 159.962H253.014C252.583 159.962 252.17 160.134 251.865 160.438C251.56 160.743 251.389 161.156 251.389 161.587V175.499C251.388 175.713 251.43 175.924 251.512 176.121C251.593 176.319 251.713 176.498 251.864 176.649C252.015 176.8 252.194 176.92 252.391 177.001C252.589 177.083 252.8 177.124 253.014 177.124H266.926C267.356 177.124 267.77 176.952 268.074 176.648C268.379 176.343 268.55 175.93 268.551 175.499V161.587C268.549 161.157 268.378 160.744 268.073 160.439C267.769 160.135 267.356 159.963 266.926 159.962Z" fill="#E6E6E6"/>
<path d="M268.526 185.017C268.456 184.643 268.258 184.305 267.966 184.061C267.674 183.816 267.306 183.682 266.926 183.68H253.014C252.583 183.68 252.17 183.851 251.865 184.156C251.56 184.461 251.389 184.874 251.389 185.305V199.217C251.388 199.43 251.43 199.642 251.512 199.839C251.593 200.036 251.713 200.216 251.864 200.367C252.015 200.518 252.194 200.637 252.391 200.719C252.589 200.8 252.8 200.842 253.014 200.842H266.926C267.356 200.842 267.77 200.67 268.074 200.366C268.379 200.061 268.55 199.648 268.551 199.217V185.305C268.552 185.208 268.543 185.112 268.526 185.017Z" fill="#E6E6E6"/>
<path d="M267.557 207.523C267.357 207.44 267.142 207.397 266.926 207.398H253.014C252.8 207.397 252.589 207.439 252.391 207.521C252.194 207.602 252.015 207.722 251.864 207.873C251.713 208.024 251.593 208.203 251.512 208.4C251.43 208.598 251.388 208.809 251.389 209.023V222.935C251.388 223.148 251.429 223.36 251.511 223.558C251.592 223.755 251.711 223.935 251.863 224.086C252.014 224.237 252.193 224.356 252.391 224.438C252.588 224.519 252.8 224.561 253.014 224.56H266.926C267.356 224.559 267.77 224.388 268.074 224.083C268.379 223.779 268.55 223.365 268.551 222.935V209.023C268.55 208.703 268.455 208.39 268.279 208.124C268.102 207.857 267.851 207.648 267.557 207.523Z" fill="#E6E6E6"/>
<path d="M296.149 112.527H282.237C281.807 112.527 281.393 112.698 281.089 113.003C280.784 113.307 280.613 113.721 280.613 114.151V128.07C280.613 128.283 280.655 128.494 280.737 128.69C280.819 128.887 280.938 129.066 281.089 129.216C281.24 129.366 281.419 129.485 281.616 129.566C281.813 129.647 282.024 129.689 282.237 129.688H296.149C296.579 129.688 296.992 129.518 297.296 129.215C297.601 128.911 297.773 128.5 297.774 128.07V114.151C297.773 113.721 297.602 113.308 297.297 113.004C296.993 112.699 296.58 112.528 296.149 112.527Z" fill="#E6E6E6"/>
<path d="M296.149 136.244H282.237C281.807 136.245 281.393 136.416 281.089 136.72C280.784 137.025 280.613 137.438 280.613 137.869V151.787C280.613 152 280.655 152.211 280.737 152.408C280.819 152.605 280.938 152.783 281.089 152.934C281.24 153.084 281.419 153.203 281.616 153.284C281.813 153.365 282.024 153.407 282.237 153.406H296.149C296.579 153.406 296.992 153.236 297.296 152.933C297.601 152.629 297.773 152.217 297.774 151.787V137.869C297.773 137.439 297.602 137.026 297.297 136.722C296.993 136.417 296.58 136.246 296.149 136.244Z" fill="#F62D2D"/>
<path d="M296.149 159.962H282.237C281.807 159.962 281.393 160.134 281.089 160.438C280.784 160.743 280.613 161.156 280.613 161.587V175.499C280.612 175.713 280.654 175.924 280.735 176.121C280.817 176.319 280.937 176.498 281.088 176.649C281.239 176.8 281.418 176.92 281.615 177.001C281.812 177.083 282.024 177.124 282.237 177.124H296.149C296.58 177.124 296.993 176.952 297.298 176.648C297.603 176.343 297.774 175.93 297.774 175.499V161.587C297.773 161.157 297.602 160.744 297.297 160.439C296.993 160.135 296.58 159.963 296.149 159.962Z" fill="#F62D2D"/>
<path d="M296.149 183.68H282.237C281.897 183.68 281.565 183.788 281.289 183.987C281.013 184.187 280.807 184.469 280.7 184.792C280.642 184.957 280.613 185.13 280.613 185.305V199.217C280.612 199.43 280.654 199.642 280.735 199.839C280.817 200.036 280.937 200.216 281.088 200.367C281.238 200.518 281.418 200.637 281.615 200.719C281.812 200.8 282.024 200.842 282.237 200.842H296.149C296.58 200.842 296.993 200.67 297.298 200.366C297.603 200.061 297.774 199.648 297.774 199.217V185.305C297.773 184.874 297.601 184.462 297.297 184.157C296.993 183.853 296.58 183.681 296.149 183.68Z" fill="#F62D2D"/>
<path d="M296.149 207.398H282.237C282.024 207.397 281.812 207.439 281.615 207.521C281.418 207.602 281.239 207.722 281.088 207.873C280.937 208.024 280.817 208.203 280.735 208.4C280.654 208.598 280.612 208.809 280.613 209.023V222.935C280.612 223.148 280.654 223.36 280.735 223.557C280.817 223.754 280.937 223.934 281.088 224.085C281.239 224.236 281.418 224.355 281.615 224.437C281.812 224.518 282.024 224.56 282.237 224.56H296.149C296.58 224.559 296.994 224.388 297.298 224.083C297.603 223.779 297.774 223.365 297.774 222.935V209.023C297.774 208.592 297.603 208.179 297.298 207.874C296.994 207.569 296.58 207.398 296.149 207.398Z" fill="#E6E6E6"/>
<path d="M325.373 112.527H311.461C311.03 112.527 310.617 112.698 310.313 113.003C310.008 113.307 309.837 113.721 309.836 114.151V128.07C309.837 128.283 309.879 128.494 309.961 128.69C310.042 128.887 310.162 129.066 310.313 129.216C310.464 129.366 310.643 129.485 310.84 129.566C311.037 129.647 311.248 129.689 311.461 129.688H325.373C325.803 129.688 326.216 129.518 326.52 129.215C326.825 128.911 326.997 128.5 326.998 128.07V114.151C326.997 113.721 326.825 113.308 326.521 113.004C326.216 112.699 325.804 112.528 325.373 112.527Z" fill="#F62D2D"/>
<path d="M325.373 136.244H311.461C311.03 136.245 310.617 136.416 310.313 136.72C310.008 137.025 309.837 137.438 309.836 137.869V151.787C309.837 152 309.879 152.211 309.961 152.408C310.042 152.605 310.162 152.783 310.313 152.934C310.464 153.084 310.643 153.203 310.84 153.284C311.037 153.365 311.248 153.407 311.461 153.406H325.373C325.803 153.406 326.216 153.236 326.52 152.933C326.825 152.629 326.997 152.217 326.998 151.787V137.869C326.997 137.439 326.825 137.026 326.521 136.722C326.216 136.417 325.804 136.246 325.373 136.244Z" fill="#F62D2D"/>
<path d="M325.373 159.962H311.461C311.03 159.962 310.617 160.134 310.313 160.438C310.008 160.743 309.837 161.156 309.836 161.587V175.499C309.836 175.713 309.878 175.924 309.959 176.121C310.041 176.319 310.16 176.498 310.311 176.649C310.462 176.8 310.642 176.92 310.839 177.001C311.036 177.083 311.248 177.124 311.461 177.124H325.373C325.804 177.124 326.217 176.952 326.522 176.648C326.827 176.343 326.998 175.93 326.998 175.499V161.587C326.997 161.157 326.825 160.744 326.521 160.439C326.216 160.135 325.804 159.963 325.373 159.962Z" fill="#E6E6E6"/>
<path d="M325.373 183.68H311.461C311.03 183.68 310.617 183.851 310.313 184.156C310.008 184.461 309.837 184.874 309.836 185.305V199.217C309.836 199.43 309.878 199.642 309.959 199.839C310.041 200.036 310.16 200.216 310.311 200.367C310.462 200.518 310.642 200.637 310.839 200.719C311.036 200.8 311.248 200.842 311.461 200.842H325.373C325.804 200.842 326.217 200.67 326.522 200.366C326.827 200.061 326.998 199.648 326.998 199.217V185.305C326.997 184.874 326.825 184.462 326.521 184.157C326.216 183.853 325.804 183.681 325.373 183.68Z" fill="#F62D2D"/>
<path d="M325.373 207.398H311.461C311.248 207.397 311.036 207.439 310.839 207.521C310.642 207.602 310.462 207.722 310.311 207.873C310.16 208.024 310.041 208.203 309.959 208.4C309.878 208.598 309.836 208.809 309.836 209.023V222.935C309.836 223.148 309.878 223.36 309.959 223.557C310.041 223.754 310.16 223.934 310.311 224.085C310.462 224.236 310.642 224.355 310.839 224.437C311.036 224.518 311.248 224.56 311.461 224.56H325.373C325.804 224.559 326.217 224.388 326.522 224.083C326.827 223.779 326.998 223.365 326.998 222.935V209.023C326.998 208.592 326.827 208.179 326.522 207.874C326.217 207.569 325.804 207.398 325.373 207.398Z" fill="#F62D2D"/>
<path d="M354.597 112.527H340.685C340.254 112.527 339.841 112.698 339.536 113.003C339.232 113.307 339.06 113.721 339.06 114.151V128.07C339.06 128.283 339.103 128.494 339.184 128.69C339.266 128.887 339.386 129.066 339.537 129.216C339.688 129.366 339.867 129.485 340.064 129.566C340.261 129.648 340.472 129.689 340.685 129.688H354.597C355.027 129.688 355.439 129.518 355.744 129.215C356.049 128.911 356.221 128.5 356.222 128.07V114.151C356.221 113.721 356.049 113.308 355.745 113.004C355.44 112.699 355.028 112.528 354.597 112.527Z" fill="#F62D2D"/>
<path d="M354.597 136.244H340.685C340.254 136.245 339.841 136.416 339.536 136.72C339.232 137.025 339.06 137.438 339.06 137.869V151.787C339.06 152 339.103 152.211 339.184 152.408C339.266 152.605 339.386 152.783 339.537 152.934C339.688 153.084 339.867 153.203 340.064 153.284C340.261 153.365 340.472 153.407 340.685 153.406H354.597C355.027 153.406 355.439 153.236 355.744 152.933C356.049 152.629 356.221 152.217 356.222 151.787V137.869C356.221 137.439 356.049 137.026 355.745 136.722C355.44 136.417 355.028 136.246 354.597 136.244Z" fill="white"/>
<path d="M354.597 159.962H340.685C340.254 159.962 339.841 160.134 339.536 160.438C339.232 160.743 339.06 161.156 339.06 161.587V175.499C339.06 175.713 339.102 175.924 339.183 176.121C339.265 176.319 339.384 176.498 339.535 176.649C339.686 176.8 339.865 176.92 340.063 177.001C340.26 177.083 340.472 177.124 340.685 177.124H354.597C355.028 177.124 355.441 176.952 355.746 176.648C356.051 176.343 356.222 175.93 356.222 175.499V161.587C356.221 161.157 356.049 160.744 355.745 160.439C355.44 160.135 355.028 159.963 354.597 159.962Z" fill="white"/>
<path d="M354.597 183.68H340.685C340.254 183.68 339.841 183.851 339.536 184.156C339.232 184.461 339.06 184.874 339.06 185.305V199.217C339.06 199.43 339.102 199.642 339.183 199.839C339.265 200.036 339.384 200.216 339.535 200.367C339.686 200.518 339.865 200.637 340.063 200.719C340.26 200.8 340.472 200.842 340.685 200.842H354.597C355.028 200.842 355.441 200.67 355.746 200.366C356.051 200.061 356.222 199.648 356.222 199.217V185.305C356.221 184.874 356.049 184.462 355.745 184.157C355.44 183.853 355.028 183.681 354.597 183.68Z" fill="#E6E6E6"/>
<path d="M354.597 207.398H340.685C340.472 207.397 340.26 207.439 340.063 207.521C339.865 207.602 339.686 207.722 339.535 207.873C339.384 208.024 339.265 208.203 339.183 208.4C339.102 208.598 339.06 208.809 339.06 209.023V222.935C339.06 223.148 339.102 223.36 339.183 223.557C339.265 223.754 339.384 223.934 339.535 224.085C339.686 224.236 339.865 224.355 340.063 224.437C340.26 224.518 340.472 224.56 340.685 224.56H354.597C355.028 224.559 355.441 224.388 355.746 224.083C356.051 223.779 356.222 223.365 356.222 222.935V209.023C356.222 208.592 356.051 208.179 355.746 207.874C355.441 207.569 355.028 207.398 354.597 207.398Z" fill="#F62D2D"/>
<path d="M383.821 112.527H369.903C369.473 112.528 369.061 112.7 368.758 113.004C368.454 113.309 368.284 113.721 368.284 114.151V128.07C368.284 128.499 368.455 128.911 368.758 129.214C369.062 129.518 369.473 129.688 369.903 129.688H383.821C384.251 129.688 384.663 129.518 384.968 129.215C385.272 128.911 385.444 128.5 385.446 128.07V114.151C385.445 113.721 385.273 113.308 384.969 113.004C384.664 112.699 384.251 112.528 383.821 112.527Z" fill="white"/>
<path d="M383.821 136.244H369.903C369.473 136.246 369.061 136.418 368.758 136.722C368.454 137.027 368.284 137.439 368.284 137.869V151.787C368.284 152.217 368.455 152.628 368.758 152.932C369.062 153.235 369.473 153.406 369.903 153.406H383.821C384.251 153.406 384.663 153.236 384.968 152.933C385.273 152.629 385.444 152.217 385.446 151.787V137.869C385.445 137.439 385.273 137.026 384.969 136.722C384.664 136.417 384.251 136.246 383.821 136.244Z" fill="white"/>
<path d="M383.821 159.962H369.903C369.473 159.964 369.061 160.135 368.758 160.44C368.454 160.745 368.284 161.157 368.284 161.587V175.499C368.283 175.712 368.325 175.923 368.406 176.12C368.487 176.317 368.606 176.496 368.756 176.647C368.907 176.798 369.085 176.918 369.282 177C369.479 177.081 369.69 177.124 369.903 177.124H383.821C384.252 177.124 384.665 176.952 384.97 176.648C385.274 176.343 385.446 175.93 385.446 175.499V161.587C385.445 161.157 385.273 160.744 384.969 160.439C384.664 160.135 384.251 159.963 383.821 159.962Z" fill="white"/>
<path d="M383.821 183.68H369.903C369.473 183.681 369.061 183.853 368.758 184.158C368.454 184.462 368.284 184.875 368.284 185.305V199.217C368.283 199.43 368.325 199.641 368.406 199.838C368.487 200.035 368.606 200.214 368.756 200.365C368.907 200.516 369.085 200.636 369.282 200.717C369.479 200.799 369.69 200.842 369.903 200.842H383.821C384.252 200.842 384.665 200.67 384.97 200.366C385.274 200.061 385.446 199.648 385.446 199.217V185.305C385.445 184.874 385.273 184.462 384.969 184.157C384.664 183.853 384.251 183.681 383.821 183.68Z" fill="#F62D2D"/>
<path d="M383.821 207.398H369.903C369.69 207.398 369.479 207.44 369.282 207.522C369.085 207.604 368.907 207.724 368.756 207.875C368.606 208.025 368.487 208.205 368.406 208.402C368.325 208.599 368.283 208.81 368.284 209.023V222.935C368.283 223.148 368.325 223.359 368.406 223.556C368.487 223.753 368.606 223.932 368.756 224.083C368.907 224.234 369.085 224.353 369.282 224.435C369.479 224.517 369.69 224.559 369.903 224.56H383.821C384.252 224.559 384.665 224.388 384.97 224.083C385.274 223.779 385.446 223.365 385.446 222.935V209.023C385.446 208.592 385.274 208.179 384.97 207.874C384.665 207.569 384.252 207.398 383.821 207.398Z" fill="#E6E6E6"/>
<path d="M413.045 112.527H399.127C398.697 112.528 398.285 112.7 397.981 113.004C397.678 113.309 397.508 113.721 397.508 114.151V128.07C397.508 128.499 397.678 128.911 397.982 129.214C398.286 129.518 398.697 129.688 399.127 129.688H413.045C413.475 129.688 413.887 129.518 414.192 129.215C414.496 128.911 414.668 128.5 414.67 128.07V114.151C414.668 113.721 414.497 113.308 414.192 113.004C413.888 112.699 413.475 112.528 413.045 112.527Z" fill="white"/>
<path d="M413.045 136.244H399.127C398.697 136.246 398.285 136.418 397.981 136.722C397.678 137.027 397.508 137.439 397.508 137.869V151.787C397.508 152.217 397.678 152.628 397.982 152.932C398.286 153.235 398.697 153.406 399.127 153.406H413.045C413.475 153.406 413.887 153.236 414.192 152.933C414.496 152.629 414.668 152.217 414.67 151.787V137.869C414.668 137.439 414.497 137.026 414.192 136.722C413.888 136.417 413.475 136.246 413.045 136.244Z" fill="white"/>
<path d="M413.045 159.962H399.127C398.697 159.964 398.285 160.135 397.981 160.44C397.678 160.745 397.508 161.157 397.508 161.587V175.499C397.507 175.712 397.549 175.923 397.63 176.12C397.711 176.317 397.83 176.496 397.98 176.647C398.131 176.798 398.309 176.918 398.506 177C398.703 177.081 398.914 177.124 399.127 177.124H413.045C413.476 177.124 413.889 176.952 414.194 176.648C414.498 176.343 414.67 175.93 414.67 175.499V161.587C414.668 161.157 414.497 160.744 414.192 160.439C413.888 160.135 413.475 159.963 413.045 159.962Z" fill="#F62D2D"/>
<path d="M413.045 183.68H399.127C398.697 183.681 398.285 183.853 397.981 184.158C397.678 184.462 397.508 184.875 397.508 185.305V199.217C397.507 199.43 397.549 199.641 397.63 199.838C397.711 200.035 397.83 200.214 397.98 200.365C398.131 200.516 398.309 200.636 398.506 200.717C398.703 200.799 398.914 200.842 399.127 200.842H413.045C413.476 200.842 413.889 200.67 414.194 200.366C414.498 200.061 414.67 199.648 414.67 199.217V185.305C414.668 184.874 414.497 184.462 414.192 184.157C413.888 183.853 413.475 183.681 413.045 183.68Z" fill="#E6E6E6"/>
<path d="M413.045 207.398H399.127C398.914 207.398 398.703 207.44 398.506 207.522C398.309 207.604 398.131 207.724 397.98 207.875C397.83 208.025 397.711 208.205 397.63 208.402C397.549 208.599 397.507 208.81 397.508 209.023V222.935C397.507 223.148 397.549 223.359 397.63 223.556C397.711 223.753 397.83 223.932 397.98 224.083C398.131 224.234 398.309 224.353 398.506 224.435C398.703 224.517 398.914 224.559 399.127 224.56H413.045C413.476 224.559 413.889 224.388 414.194 224.083C414.498 223.779 414.67 223.365 414.67 222.935V209.023C414.67 208.592 414.498 208.179 414.194 207.874C413.889 207.569 413.476 207.398 413.045 207.398Z" fill="white"/>
<path d="M442.269 112.527H428.35C427.92 112.528 427.509 112.7 427.205 113.004C426.902 113.309 426.732 113.721 426.732 114.151V128.07C426.732 128.499 426.902 128.911 427.206 129.214C427.509 129.518 427.921 129.688 428.35 129.688H442.269C442.698 129.688 443.111 129.518 443.416 129.215C443.72 128.911 443.892 128.5 443.894 128.07V114.151C443.892 113.721 443.721 113.308 443.416 113.004C443.112 112.699 442.699 112.528 442.269 112.527Z" fill="#F62D2D"/>
<path d="M442.269 136.244H428.35C427.92 136.246 427.509 136.418 427.205 136.722C426.902 137.027 426.731 137.439 426.732 137.869V151.787C426.732 152.217 426.902 152.628 427.206 152.932C427.509 153.235 427.921 153.406 428.35 153.406H442.269C442.698 153.406 443.111 153.236 443.416 152.933C443.72 152.629 443.892 152.217 443.894 151.787V137.869C443.892 137.439 443.721 137.026 443.416 136.722C443.112 136.417 442.699 136.246 442.269 136.244Z" fill="#F62D2D"/>
<path d="M442.269 159.962H428.35C427.92 159.964 427.509 160.135 427.205 160.44C426.902 160.745 426.732 161.157 426.732 161.587V175.499C426.731 175.712 426.772 175.923 426.854 176.12C426.935 176.317 427.054 176.496 427.204 176.647C427.354 176.798 427.533 176.918 427.73 177C427.926 177.081 428.137 177.124 428.35 177.124H442.269C442.699 177.124 443.113 176.952 443.417 176.648C443.722 176.343 443.893 175.93 443.894 175.499V161.587C443.892 161.157 443.721 160.744 443.416 160.439C443.112 160.135 442.699 159.963 442.269 159.962Z" fill="#E6E6E6"/>
<path d="M442.269 183.68H428.35C427.92 183.681 427.509 183.853 427.205 184.158C426.902 184.462 426.732 184.875 426.732 185.305V199.217C426.731 199.43 426.772 199.641 426.854 199.838C426.935 200.035 427.054 200.214 427.204 200.365C427.354 200.516 427.533 200.636 427.73 200.717C427.926 200.799 428.137 200.842 428.35 200.842H442.269C442.699 200.842 443.113 200.67 443.417 200.366C443.722 200.061 443.893 199.648 443.894 199.217V185.305C443.892 184.874 443.721 184.462 443.416 184.157C443.112 183.853 442.699 183.681 442.269 183.68Z" fill="white"/>
<path d="M442.269 207.398H428.35C428.137 207.398 427.926 207.44 427.73 207.522C427.533 207.604 427.354 207.724 427.204 207.875C427.054 208.025 426.935 208.205 426.854 208.402C426.772 208.599 426.731 208.81 426.732 209.023V222.935C426.731 223.148 426.772 223.359 426.854 223.556C426.935 223.753 427.054 223.932 427.204 224.083C427.354 224.234 427.533 224.353 427.73 224.435C427.926 224.517 428.137 224.559 428.35 224.56H442.269C442.699 224.559 443.113 224.388 443.417 224.083C443.722 223.779 443.893 223.365 443.894 222.935V209.023C443.893 208.592 443.722 208.179 443.417 207.874C443.113 207.569 442.699 207.398 442.269 207.398Z" fill="#F62D2D"/>
<path d="M471.492 112.527H457.574C457.144 112.528 456.732 112.7 456.429 113.004C456.126 113.309 455.955 113.721 455.955 114.151V128.07C455.956 128.499 456.126 128.911 456.43 129.214C456.733 129.518 457.145 129.688 457.574 129.688H471.492C471.922 129.688 472.335 129.518 472.639 129.215C472.944 128.911 473.116 128.5 473.117 128.07V114.151C473.116 113.721 472.944 113.308 472.64 113.004C472.335 112.699 471.923 112.528 471.492 112.527Z" fill="#F62D2D"/>
<path d="M471.492 136.244H457.574C457.144 136.246 456.732 136.418 456.429 136.722C456.126 137.027 455.955 137.439 455.955 137.869V151.787C455.956 152.217 456.126 152.628 456.43 152.932C456.733 153.235 457.145 153.406 457.574 153.406H471.492C471.922 153.406 472.335 153.236 472.639 152.933C472.944 152.629 473.116 152.217 473.117 151.787V137.869C473.116 137.439 472.944 137.026 472.64 136.722C472.335 136.417 471.923 136.246 471.492 136.244Z" fill="#F62D2D"/>
<path d="M471.492 159.962H457.574C457.144 159.964 456.732 160.135 456.429 160.44C456.126 160.745 455.955 161.157 455.955 161.587V175.499C455.955 175.712 455.996 175.923 456.077 176.12C456.158 176.317 456.278 176.496 456.428 176.647C456.578 176.798 456.757 176.918 456.954 177C457.15 177.081 457.361 177.124 457.574 177.124H471.492C471.923 177.124 472.336 176.952 472.641 176.648C472.946 176.343 473.117 175.93 473.117 175.499V161.587C473.116 161.157 472.944 160.744 472.64 160.439C472.336 160.135 471.923 159.963 471.492 159.962Z" fill="#E6E6E6"/>
<path d="M471.492 183.68H457.574C457.144 183.681 456.732 183.853 456.429 184.158C456.126 184.462 455.955 184.875 455.955 185.305V199.217C455.955 199.43 455.996 199.641 456.077 199.838C456.158 200.035 456.278 200.214 456.428 200.365C456.578 200.516 456.757 200.636 456.954 200.717C457.15 200.799 457.361 200.842 457.574 200.842H471.492C471.923 200.842 472.336 200.67 472.641 200.366C472.946 200.061 473.117 199.648 473.117 199.217V185.305C473.116 184.874 472.944 184.462 472.64 184.157C472.335 183.853 471.923 183.681 471.492 183.68Z" fill="#F62D2D"/>
<path d="M471.492 207.398H457.574C457.361 207.398 457.15 207.44 456.954 207.522C456.757 207.604 456.578 207.724 456.428 207.875C456.278 208.025 456.158 208.205 456.077 208.402C455.996 208.599 455.955 208.81 455.955 209.023V222.935C455.955 223.148 455.996 223.359 456.077 223.556C456.158 223.753 456.278 223.932 456.428 224.083C456.578 224.234 456.757 224.353 456.954 224.435C457.15 224.517 457.361 224.559 457.574 224.56H471.492C471.923 224.559 472.336 224.388 472.641 224.083C472.946 223.779 473.117 223.365 473.117 222.935V209.023C473.117 208.592 472.946 208.179 472.641 207.874C472.336 207.569 471.923 207.398 471.492 207.398Z" fill="#F62D2D"/>
<path d="M500.716 112.527H486.798C486.368 112.528 485.956 112.7 485.653 113.004C485.349 113.309 485.179 113.721 485.179 114.151V128.07C485.179 128.499 485.35 128.911 485.654 129.214C485.957 129.518 486.369 129.688 486.798 129.688H500.716C501.146 129.688 501.559 129.518 501.863 129.215C502.168 128.911 502.34 128.5 502.341 128.07V114.151C502.34 113.721 502.168 113.308 501.864 113.004C501.559 112.699 501.147 112.528 500.716 112.527Z" fill="#E6E6E6"/>
<path d="M500.716 136.244H486.798C486.368 136.246 485.956 136.418 485.653 136.722C485.349 137.027 485.179 137.439 485.179 137.869V151.787C485.179 152.217 485.35 152.628 485.654 152.932C485.957 153.235 486.369 153.406 486.798 153.406H500.716C501.146 153.406 501.559 153.236 501.863 152.933C502.168 152.629 502.34 152.217 502.341 151.787V137.869C502.34 137.439 502.168 137.026 501.864 136.722C501.559 136.417 501.147 136.246 500.716 136.244Z" fill="#F62D2D"/>
<path d="M500.716 159.962H486.798C486.368 159.964 485.956 160.135 485.653 160.44C485.349 160.745 485.179 161.157 485.179 161.587V175.499C485.179 175.712 485.22 175.923 485.301 176.12C485.382 176.317 485.501 176.496 485.652 176.647C485.802 176.798 485.981 176.918 486.177 177C486.374 177.081 486.585 177.124 486.798 177.124H500.716C501.147 177.124 501.56 176.952 501.865 176.648C502.17 176.343 502.341 175.93 502.341 175.499V161.587C502.34 161.157 502.168 160.744 501.864 160.439C501.559 160.135 501.147 159.963 500.716 159.962Z" fill="#F62D2D"/>
<path d="M500.716 183.68H486.798C486.368 183.681 485.956 183.853 485.653 184.158C485.349 184.462 485.179 184.875 485.179 185.305V199.217C485.179 199.43 485.22 199.641 485.301 199.838C485.382 200.035 485.501 200.214 485.652 200.365C485.802 200.516 485.981 200.636 486.177 200.717C486.374 200.799 486.585 200.842 486.798 200.842H500.716C501.147 200.842 501.56 200.67 501.865 200.366C502.17 200.061 502.341 199.648 502.341 199.217V185.305C502.34 184.874 502.168 184.462 501.864 184.157C501.559 183.853 501.147 183.681 500.716 183.68Z" fill="#F62D2D"/>
<path d="M500.716 207.398H486.798C486.585 207.398 486.374 207.44 486.177 207.522C485.981 207.604 485.802 207.724 485.652 207.875C485.501 208.025 485.382 208.205 485.301 208.402C485.22 208.599 485.179 208.81 485.179 209.023V222.935C485.179 223.148 485.22 223.359 485.301 223.556C485.382 223.753 485.501 223.932 485.652 224.083C485.802 224.234 485.981 224.353 486.177 224.435C486.374 224.517 486.585 224.559 486.798 224.56H500.716C501.147 224.559 501.56 224.388 501.865 224.083C502.17 223.779 502.341 223.365 502.341 222.935V209.023C502.341 208.592 502.17 208.179 501.865 207.874C501.56 207.569 501.147 207.398 500.716 207.398Z" fill="#E6E6E6"/>
<path d="M529.94 112.527H516.022C515.592 112.528 515.18 112.7 514.877 113.004C514.573 113.309 514.403 113.721 514.403 114.151V128.07C514.403 128.499 514.574 128.911 514.877 129.214C515.181 129.518 515.593 129.688 516.022 129.688H529.94C530.37 129.688 530.782 129.518 531.087 129.215C531.392 128.911 531.564 128.5 531.565 128.07V114.151C531.564 113.721 531.392 113.308 531.088 113.004C530.783 112.699 530.371 112.528 529.94 112.527Z" fill="#E6E6E6"/>
<path d="M529.94 136.244H516.022C515.592 136.246 515.18 136.418 514.877 136.722C514.573 137.027 514.403 137.439 514.403 137.869V151.787C514.403 152.217 514.574 152.628 514.877 152.932C515.181 153.235 515.593 153.406 516.022 153.406H529.94C530.37 153.406 530.782 153.236 531.087 152.933C531.392 152.629 531.564 152.217 531.565 151.787V137.869C531.564 137.439 531.392 137.026 531.088 136.722C530.783 136.417 530.371 136.246 529.94 136.244Z" fill="#E6E6E6"/>
<path d="M529.94 159.962H516.022C515.592 159.964 515.18 160.136 514.877 160.44C514.573 160.745 514.403 161.157 514.403 161.587V175.499C514.403 175.712 514.444 175.923 514.525 176.12C514.606 176.317 514.725 176.496 514.876 176.647C515.026 176.798 515.205 176.918 515.401 177C515.598 177.081 515.809 177.124 516.022 177.124H529.94C530.371 177.124 530.784 176.952 531.089 176.648C531.394 176.343 531.565 175.93 531.565 175.499V161.587C531.564 161.157 531.392 160.744 531.088 160.439C530.783 160.135 530.371 159.963 529.94 159.962Z" fill="#F62D2D"/>
<path d="M529.94 183.68H516.022C515.592 183.681 515.18 183.853 514.877 184.158C514.573 184.462 514.403 184.875 514.403 185.305V199.217C514.403 199.43 514.444 199.641 514.525 199.838C514.606 200.035 514.725 200.214 514.876 200.365C515.026 200.516 515.205 200.636 515.401 200.717C515.598 200.799 515.809 200.842 516.022 200.842H529.94C530.371 200.842 530.784 200.67 531.089 200.366C531.394 200.061 531.565 199.648 531.565 199.217V185.305C531.564 184.874 531.392 184.462 531.088 184.157C530.783 183.853 530.371 183.681 529.94 183.68Z" fill="#E6E6E6"/>
<path d="M529.94 207.398H516.022C515.809 207.398 515.598 207.44 515.401 207.522C515.205 207.604 515.026 207.724 514.876 207.875C514.725 208.025 514.606 208.205 514.525 208.402C514.444 208.599 514.403 208.81 514.403 209.023V222.935C514.403 223.148 514.444 223.359 514.525 223.556C514.606 223.753 514.725 223.932 514.876 224.083C515.026 224.234 515.205 224.353 515.401 224.435C515.598 224.517 515.809 224.559 516.022 224.56H529.94C530.371 224.559 530.784 224.388 531.089 224.083C531.394 223.779 531.565 223.365 531.565 222.935V209.023C531.565 208.592 531.394 208.179 531.089 207.874C530.784 207.569 530.371 207.398 529.94 207.398Z" fill="#E6E6E6"/>
<path d="M210.05 412.515H209.663L209.994 412.472L210.05 412.515Z" fill="#2F2E41"/>
<path d="M176.752 153.153C200.334 153.153 219.451 134.036 219.451 110.454C219.451 86.8713 200.334 67.7542 176.752 67.7542C153.17 67.7542 134.052 86.8713 134.052 110.454C134.052 134.036 153.17 153.153 176.752 153.153Z" fill="#FFB6B6"/>
<path d="M214.145 79.1471C214.145 79.1471 225.313 57.7974 200.743 55.8565C200.743 55.8565 179.797 36.8558 158.448 52.3829C158.448 52.3829 146.802 52.3829 140.434 65.5609C140.434 65.5609 131.275 62.0873 129.263 71.3835C129.263 71.3835 122.561 90.7924 129.263 108.26C135.964 125.728 138.191 127.669 138.191 127.669C138.191 127.669 127.178 91.0467 153.984 89.1058C180.789 87.1648 210.785 70.4131 213.019 91.7628C215.253 113.112 218.615 118.373 218.615 118.373C218.615 118.373 239.833 87.8811 214.145 79.1471Z" fill="#2B2F35"/>
<path d="M287.206 215.685L287.068 216.41L285.525 224.56L274.856 280.932L274.225 284.251L272.9 291.269L271.088 300.844L267.069 322.062L265.919 328.143L265.488 330.424L265.338 331.224L264.144 337.518L263.782 339.417L260.87 360.998L258.326 379.803L266.838 388.315L261.763 393.39L258.432 412.471L258.438 412.515H122.488C116.988 408.952 111.567 405.279 106.226 401.496L107.345 393.122C107.345 393.122 111.194 378.166 109.576 376.378C107.963 374.591 104.426 371.397 104.426 371.397L108.882 360.998L109.501 359.554L108.463 338.036L108.438 337.518L108.095 330.424L108.051 329.512L107.982 328.143L106.663 300.844L106.638 300.394L106.238 292.119L105.863 284.251L105.701 280.932L104.095 247.727L103.007 225.178L102.057 205.548L105.876 204.254L146.718 190.373L163.636 168.38L198.847 168.643L216.084 168.774L244.845 195.448L251.389 198.573L251.439 198.598L256.132 200.842L268.032 206.523L280.613 212.535L287.069 215.616L287.206 215.685Z" fill="#828484"/>
<path d="M168.186 348.455C165.606 349.455 162.838 349.877 160.077 349.691C157.316 349.505 154.63 348.716 152.207 347.379C149.784 346.043 147.683 344.191 146.053 341.955C144.423 339.719 143.303 337.153 142.772 334.437L76.1758 324.989L99.3266 298.801L159.019 311.788C163.64 311.199 168.317 312.325 172.164 314.953C176.01 317.582 178.759 321.53 179.889 326.05C181.019 330.57 180.452 335.347 178.295 339.476C176.138 343.606 172.541 346.801 168.186 348.455Z" fill="#FFB6B6"/>
<path d="M138.493 300.844C137.26 299.28 135.513 298.202 133.562 297.8L106.238 292.119L103.432 291.538C101.801 291.198 100.261 290.517 98.9113 289.54C97.5619 288.563 96.4339 287.312 95.6012 285.87C94.7374 284.355 94.2148 282.67 94.07 280.932C93.9397 279.352 94.1289 277.763 94.6262 276.257L104.095 247.727L110.238 229.216C110.983 226.983 111.422 224.66 111.544 222.31C111.887 215.805 109.874 209.396 105.876 204.254C102.36 199.735 97.4848 196.466 91.9691 194.931C86.4534 193.396 80.5902 193.676 75.2457 195.729C75.0895 195.786 74.927 195.848 74.7707 195.911C70.9379 197.441 67.5136 199.842 64.7683 202.923C62.023 206.005 60.032 209.683 58.9526 213.666L52.2779 237.946L38.5097 288.001C37.1314 293.016 36.853 298.269 37.6934 303.402C38.5338 308.535 40.4733 313.425 43.379 317.738C46.2848 322.052 50.0882 325.687 54.529 328.394C58.9698 331.101 63.9431 332.817 69.1085 333.424L108.463 338.036L126.675 340.174C128.781 340.427 130.905 339.877 132.624 338.634C134.342 337.392 135.53 335.547 135.95 333.468C135.979 333.354 136.002 333.24 136.018 333.124L136.456 330.424L140.162 307.687L140.199 307.456C140.392 306.296 140.34 305.108 140.047 303.969C139.753 302.831 139.224 301.766 138.493 300.844Z" fill="#828484"/>
<path d="M210.606 349.184C213.301 349.81 216.101 349.837 218.808 349.264C221.515 348.69 224.064 347.53 226.274 345.866C228.484 344.201 230.303 342.072 231.601 339.628C232.899 337.184 233.646 334.486 233.789 331.722L298.387 312.977L271.775 290.316L214.511 311.591C209.853 311.659 205.381 313.433 201.944 316.578C198.506 319.723 196.342 324.019 195.86 328.653C195.379 333.287 196.614 337.936 199.332 341.72C202.049 345.505 206.061 348.16 210.606 349.184Z" fill="#FFB6B6"/>
<path d="M330.461 271.045L299.737 200.336C297.224 194.53 292.736 189.803 287.068 186.992C285.317 186.13 283.477 185.459 281.581 184.992C281.287 184.917 280.994 184.849 280.7 184.792C276.68 183.915 272.51 183.992 268.526 185.017C264.883 185.953 261.479 187.646 258.534 189.986C255.59 192.326 253.172 195.261 251.439 198.598C251.42 198.626 251.403 198.655 251.389 198.685C249.452 202.432 248.422 206.581 248.382 210.798C248.342 215.015 249.292 219.183 251.157 222.966L251.539 223.728L273.25 267.333C273.992 268.824 274.409 270.455 274.476 272.119C274.543 273.783 274.257 275.442 273.637 276.987C273.018 278.533 272.078 279.93 270.881 281.087C269.683 282.244 268.254 283.135 266.688 283.701L265.163 284.251L237.739 294.157C235.681 294.891 233.989 296.395 233.018 298.352C232.047 300.31 231.873 302.567 232.533 304.65L232.602 304.869L240.289 329.468C240.327 329.58 240.364 329.693 240.408 329.805C240.475 330.018 240.559 330.224 240.658 330.424C241.475 332.256 242.919 333.737 244.73 334.6C246.541 335.462 248.601 335.65 250.539 335.13L265.338 331.224L268.357 330.424L306.574 320.331C311.603 319.002 316.285 316.602 320.3 313.296C324.315 309.989 327.568 305.854 329.836 301.174C332.105 296.493 333.335 291.378 333.443 286.178C333.55 280.978 332.533 275.816 330.461 271.045Z" fill="#828484"/>
<path d="M28.0601 330.424C36.9163 341.226 46.4674 351.439 56.6527 360.998H339.123C341.844 361.002 344.453 362.086 346.377 364.01C348.3 365.935 349.382 368.545 349.385 371.266L349.791 442.845C367.168 434.861 383.442 424.666 398.208 412.515C402.308 409.146 406.28 405.631 410.126 401.971C412.645 399.584 415.103 397.138 417.501 394.634C435.477 375.907 450.034 354.175 460.512 330.424H28.0601Z" fill="#464A50"/>
<path d="M417.501 394.634C415.107 397.14 412.649 399.586 410.126 401.971H349.997V394.634H417.501Z" fill="white"/>
<path d="M286.644 159.962C286.347 159.414 285.907 158.956 285.371 158.637C284.835 158.318 284.223 158.15 283.6 158.15H78.7081C77.7895 158.152 76.9093 158.519 76.2603 159.169C75.6113 159.819 75.2465 160.7 75.2458 161.618V284.251H287.068V161.618C287.072 161.039 286.925 160.468 286.644 159.962Z" fill="#464A50"/>
<path d="M75.0602 280.931V296.064C75.0602 296.691 75.1838 297.312 75.4238 297.892C75.6639 298.472 76.0158 298.998 76.4594 299.442C76.903 299.885 77.4296 300.237 78.0092 300.477C78.5888 300.717 79.21 300.841 79.8374 300.841H158.02V330.706H156.981C156.9 330.706 156.819 330.723 156.744 330.754C156.668 330.785 156.6 330.831 156.542 330.888C156.485 330.946 156.439 331.014 156.408 331.09C156.377 331.165 156.361 331.246 156.361 331.327V333.404C156.36 333.486 156.377 333.567 156.408 333.642C156.439 333.717 156.485 333.786 156.542 333.843C156.6 333.901 156.668 333.947 156.744 333.978C156.819 334.009 156.9 334.025 156.981 334.025H205.516C205.597 334.025 205.678 334.009 205.753 333.978C205.828 333.947 205.897 333.901 205.955 333.843C206.012 333.786 206.058 333.717 206.089 333.642C206.12 333.567 206.136 333.486 206.136 333.404V331.327C206.136 331.246 206.12 331.165 206.089 331.09C206.058 331.014 206.012 330.946 205.954 330.888C205.897 330.831 205.828 330.785 205.753 330.754C205.678 330.723 205.597 330.706 205.516 330.706H204.477V300.841H282.659C283.287 300.841 283.908 300.717 284.488 300.477C285.067 300.237 285.594 299.885 286.037 299.442C286.481 298.998 286.833 298.472 287.073 297.892C287.313 297.312 287.437 296.691 287.437 296.064V280.931H75.0602Z" fill="#464A50"/>
<path d="M178.682 237.497C189.488 237.497 198.248 228.737 198.248 217.931C198.248 207.125 189.488 198.365 178.682 198.365C167.876 198.365 159.116 207.125 159.116 217.931C159.116 228.737 167.876 237.497 178.682 237.497Z" fill="#F62D2D"/>
<path d="M228.533 108.12H225.408C225.408 84.4964 202.028 69.0157 178.442 69.0032C175.011 68.9932 171.588 69.3261 168.223 69.997C164.436 70.7532 160.505 71.6594 156.642 72.8406C141.412 77.5092 127.287 86.5338 127.287 108.12C127.284 112.313 127.818 116.488 128.875 120.545L125.85 121.332C124.728 117.018 124.161 112.578 124.163 108.12C124.163 89.2587 131.906 76.303 145.28 68.5783C152.311 64.5159 160.892 61.8973 170.723 60.6223C174.814 60.0781 178.95 59.9524 183.066 60.2474C210.19 62.1972 228.533 82.9964 228.533 108.12Z" fill="#F62D2D"/>
<path d="M233.739 109.852L232.508 100.752C232.204 98.4539 231.098 96.3374 229.383 94.7772C228.283 93.76 226.965 93.0064 225.531 92.5733C224.096 92.1402 222.582 92.039 221.102 92.2773L219.146 92.546C218.611 92.6164 218.095 92.7925 217.628 93.0639C217.162 93.3354 216.753 93.6968 216.428 94.1272C216.099 94.5561 215.858 95.046 215.72 95.5684C215.582 96.0908 215.548 96.6354 215.621 97.1708L218.465 118.132C218.582 118.987 218.965 119.783 219.56 120.407C220.154 121.032 220.93 121.454 221.777 121.614C222.028 121.664 222.284 121.689 222.54 121.689C222.724 121.689 222.908 121.676 223.09 121.651L225.277 121.357C226.611 121.18 227.894 120.733 229.049 120.042C230.203 119.35 231.204 118.431 231.989 117.339C232.158 117.101 232.321 116.858 232.471 116.608C233.642 114.563 234.089 112.182 233.739 109.852Z" fill="#F62D2D"/>
<path d="M217.884 92.9272C217.31 93.206 216.811 93.6173 216.428 94.1272C216.099 94.5562 215.858 95.046 215.72 95.5684C215.582 96.0908 215.548 96.6354 215.621 97.1708L218.465 118.132C218.582 118.987 218.965 119.783 219.56 120.407C220.154 121.032 220.93 121.454 221.777 121.614L217.884 92.9272Z" fill="white"/>
<path d="M233.739 109.852L232.508 100.752C232.205 98.4539 231.098 96.3374 229.383 94.7772L232.214 115.633C232.257 115.967 232.343 116.295 232.471 116.608C233.642 114.563 234.089 112.182 233.739 109.852Z" fill="#464A50"/>
<path d="M224.009 116.408C224.864 116.292 225.294 114.257 224.969 111.863C224.644 109.469 223.688 107.622 222.833 107.738C221.977 107.854 221.548 109.889 221.872 112.283C222.197 114.677 223.154 116.524 224.009 116.408Z" fill="#464A50"/>
<path d="M222.134 105.158C222.989 105.042 223.419 103.008 223.094 100.613C222.769 98.2191 221.813 96.3722 220.958 96.4882C220.103 96.6042 219.673 98.6391 219.997 101.033C220.322 103.428 221.279 105.274 222.134 105.158Z" fill="#464A50"/>
<path d="M234.008 109.533C234.863 109.417 235.293 107.382 234.968 104.988C234.644 102.594 233.687 100.747 232.832 100.863C231.977 100.979 231.547 103.014 231.872 105.408C232.197 107.802 233.153 109.649 234.008 109.533Z" fill="#464A50"/>
<path d="M178.442 69.0032C175.011 68.9932 171.588 69.326 168.223 69.9969C164.436 70.7531 160.505 71.6593 156.642 72.8405C150.611 72.5468 146.174 70.9844 145.28 68.5782C152.311 64.5159 160.892 61.8972 170.723 60.6223C174.814 60.078 178.95 59.9524 183.066 60.2473C183.502 60.5027 183.879 60.8475 184.172 61.259C184.465 61.6705 184.668 62.1393 184.766 62.6347C185.06 64.8096 182.579 67.122 178.442 69.0032Z" fill="#464A50"/>
<path d="M138.543 129.807L133.731 109.802C133.559 109.08 133.178 108.425 132.636 107.919C132.093 107.413 131.413 107.079 130.681 106.958C130.474 106.926 130.265 106.909 130.056 106.908C129.761 106.909 129.468 106.945 129.181 107.014L127.319 107.464C124.921 108.044 122.851 109.552 121.563 111.656C120.275 113.76 119.875 116.29 120.45 118.689L122.606 127.663C123.099 129.776 124.271 131.669 125.944 133.051C126.215 133.269 126.499 133.472 126.794 133.657C127.841 134.314 129.01 134.754 130.23 134.951C131.451 135.149 132.698 135.1 133.9 134.807L135.756 134.357C136.247 134.242 136.708 134.027 137.112 133.726C137.712 133.288 138.169 132.682 138.424 131.984C138.679 131.286 138.72 130.529 138.543 129.807Z" fill="#F62D2D"/>
<path d="M128.455 126.085C129.294 125.883 129.515 123.815 128.95 121.466C128.385 119.117 127.247 117.376 126.408 117.578C125.569 117.78 125.347 119.848 125.912 122.197C126.477 124.546 127.616 126.287 128.455 126.085Z" fill="#464A50"/>
<path d="M122.205 127.96C123.044 127.758 123.266 125.69 122.7 123.341C122.135 120.992 120.997 119.251 120.158 119.453C119.319 119.655 119.097 121.723 119.662 124.072C120.228 126.421 121.366 128.162 122.205 127.96Z" fill="#464A50"/>
<path d="M138.849 129.732L134.037 109.727C133.85 108.946 133.436 108.237 132.848 107.69C132.26 107.143 131.523 106.782 130.731 106.652L137.3 133.976C137.948 133.501 138.442 132.844 138.717 132.089C138.993 131.333 139.039 130.513 138.849 129.732Z" fill="white"/>
<path d="M121.538 114.726C121.405 114.17 121.156 113.648 120.806 113.195C120.13 114.947 120.006 116.864 120.45 118.689L122.606 127.663C123.099 129.776 124.271 131.669 125.944 133.051L121.538 114.726Z" fill="#464A50"/>
</g>
<defs>
<clipPath id="clip0_114_205">
<rect width="531.565" height="463" fill="white"/>
</clipPath>
</defs>
</svg>
